<svg xmlns="http://www.w3.org/2000/svg" viewBox="0 0 199.7 60" role="img" class="icon-swr3">
<path color="currentColor" d="M0 2.7v15.4l8.3 8.3L0 34.7V50l23.5-23.7zm0 0v15.4l8.3 8.3L0 34.7V50l23.5-23.7zm21.1 0v15.4l8.3 8.3-8.3 8.3V50l23.5-23.7zM72.4 15a22.4 22.4 0 0 0-6.2-1c-4 0-5.4 1.5-5.4 3.5 0 4.5 11.2 4.7 11.2 15 0 8.9-7.8 16.1-19 16.1a48.7 48.7 0 0 1-8.8-.7l2-11a26.5 26.5 0 0 0 8 1.4c3.4 0 5-1.3 5-3.6 0-4.5-11-4.4-11-15.1 0-8.2 5.8-15.4 18.4-15.4a51.4 51.4 0 0 1 7.8.6zm41 32.7h-13.1l-.4-16a103.6 103.6 0 0 1 .4-10.8 85 85 0 0 1-3.4 10.4l-6.4 16.4H78.2L76.5 5.1h11l.5 17.4a73.8 73.8 0 0 1-.5 9.3c1-3 2-6 3.2-9L98 5h11l.8 16.9a73.9 73.9 0 0 1-.2 9.4h.1c1.1-3.6 2.3-7 3.4-9.9l6.2-16.4h11.2zm48.2-32.5c0-6.7-4.6-10.4-14.7-10.4-5 0-10.2 0-14.2.3l-8.1 42.6H136l3-15.5h.5l4.9 15.5h13.4l-4.8-12.5-2-4.7c7.6-2.9 10.5-8.5 10.5-15.3m-12.5 2.4a6.3 6.3 0 0 1-6.3 6.3h-.2a14.3 14.3 0 0 1-1.8-.1l1.7-9.2a21.5 21.5 0 0 1 2.4-.1c3 0 4.2 1.2 4.2 3m40 9.4v.1c4.7 1.2 7 6 7 10.5 0 11-9.8 22.5-29.2 22.5a35.7 35.7 0 0 1-9.4-1.3l3.9-13.5a16.8 16.8 0 0 0 7 1.5c7.1 0 10.6-3 10.6-6.7s-4.4-5-14.1-3.7l2.2-12.6c10.6 0 15.6-3.2 15.6-7 0-2.3-1.7-3.8-5-3.8a19.7 19.7 0 0 0-9 2.1V2a48 48 0 0 1 14.1-2c10.5 0 17 4.2 17 12.3 0 5.8-4 11.7-10.6 14.6"></path>
</svg>